<svg xmlns="http://www.w3.org/2000/svg" fill="none" viewBox="0 0 20 20">
  <path fill="#fff" d="M14.944 13.798c.218-.875 1.387-.915 1.723-.163l.055.162v.001l.229.915.918.23h-.001c.934.233.918 1.548.003 1.78h-.002l-.918.229-.229.914h.001c-.231.936-1.546.92-1.778.005l-.001-.002-.23-.918-.915-.229c-.935-.232-.918-1.546-.002-1.777l.001-.001.916-.23zM8.317 4.826c.484-1.692 2.882-1.692 3.366 0l.738 2.582a.25.25 0 0 0 .171.172l2.582.737.155.05c1.486.563 1.486 2.702 0 3.264l-.155.052-2.583.736.001.002a.25.25 0 0 0-.17.172l-.739 2.581c-.469 1.639-2.734 1.69-3.315.155l-.051-.155-.737-2.582-.025-.058a.25.25 0 0 0-.147-.114l-2.582-.737c-1.692-.484-1.692-2.882 0-3.366l2.582-.737a.25.25 0 0 0 .172-.172zm9.19 11.574-.003-.001-.003-.001zM10 5.056a.27.27 0 0 0-.152.045.2.2 0 0 0-.07.086l-.019.05-.737 2.583A1.75 1.75 0 0 1 7.82 9.022l-2.582.737a.23.23 0 0 0-.137.09.27.27 0 0 0-.045.15.27.27 0 0 0 .045.153c.023.032.06.067.137.089l2.582.737a1.75 1.75 0 0 1 1.128.992l.074.21.737 2.582.019.05c.02.044.046.07.07.087.037.026.09.044.152.044a.27.27 0 0 0 .152-.044.24.24 0 0 0 .089-.137l.737-2.583.074-.209a1.75 1.75 0 0 1 1.128-.992l2.582-.737.05-.019a.2.2 0 0 0 .087-.07.27.27 0 0 0 .044-.152.26.26 0 0 0-.044-.152.2.2 0 0 0-.087-.07l-.05-.019-2.582-.737a1.75 1.75 0 0 1-1.202-1.202l-.737-2.582a.23.23 0 0 0-.09-.137.27.27 0 0 0-.151-.045M3.277 2.132c.23-.927 1.548-.926 1.778 0l.23.915.917.23H6.2c.927.23.927 1.548 0 1.778v.001l-.916.229-.229.917V6.2c-.231.927-1.55.927-1.78 0l-.229-.916-.916-.229h.001c-.926-.231-.927-1.549 0-1.78l.915-.229zm-.781 1.47h.003L2.494 3.6z"/>
</svg>