<svg xmlns="http://www.w3.org/2000/svg" fill="none" viewBox="0 0 20 20">
  <path fill="#fff" d="M13.14 9.29 8.25 4.294A.98.98 0 0 0 7.554 4c-.26 0-.51.106-.694.294a1 1 0 0 0-.288.71c0 .265.104.52.288.709l4.205 4.286-4.205 4.287a1 1 0 0 0-.29.709 1.02 1.02 0 0 0 .29.71.98.98 0 0 0 .694.295.96.96 0 0 0 .694-.296l4.89-4.995a1 1 0 0 0 .29-.71 1.02 1.02 0 0 0-.29-.71"/>
  <path fill="#fff" d="m8.25 4.294 4.89 4.996a1 1 0 0 1 .289.71 1.02 1.02 0 0 1-.29.709l-4.89 4.995a.98.98 0 0 1-.694.296.96.96 0 0 1-.694-.296 1 1 0 0 1-.29-.709 1.02 1.02 0 0 1 .29-.71L11.066 10 6.861 5.713a1.014 1.014 0 0 1 0-1.42.97.97 0 0 1 1.07-.217q.18.077.318.218"/>
</svg>