<svg xmlns="http://www.w3.org/2000/svg" fill="none" viewBox="0 0 20 20"><path fill="#fff" d="M2 15.6v-3.2a.8.8 0 1 1 1.6 0v3.2a.802.802 0 0 0 .8.8h11.2a.802.802 0 0 0 .8-.8v-3.2a.8.8 0 1 1 1.6 0v3.2a2.401 2.401 0 0 1-2.4 2.4H4.4A2.401 2.401 0 0 1 2 15.6Zm7.2-3.2V2.8a.8.8 0 1 1 1.6 0v9.6a.8.8 0 1 1-1.6 0Z"/><path fill="#fff" d="M13.578 8.251a.817.817 0 0 1 1.178 0 .874.874 0 0 1 0 1.212l-4.167 4.286a.817.817 0 0 1-1.179 0L5.244 9.463a.874.874 0 0 1 0-1.212.816.816 0 0 1 1.178 0l3.577 3.679 3.579-3.679Z"/></svg>