<svg xmlns="http://www.w3.org/2000/svg" fill="none" viewBox="0 0 20 20">
  <path fill="#fff" d="M1 5c0-.265.086-.52.24-.707A.75.75 0 0 1 1.818 4h16.364c.217 0 .425.105.578.293.154.187.24.442.24.707s-.086.52-.24.707a.75.75 0 0 1-.578.293H1.818a.75.75 0 0 1-.578-.293A1.12 1.12 0 0 1 1 5m2.5 5c0-.265.086-.52.24-.707A.75.75 0 0 1 4.318 9h10.91c.216 0 .424.105.578.293.153.187.24.442.24.707s-.087.52-.24.707a.75.75 0 0 1-.579.293H4.318a.75.75 0 0 1-.578-.293A1.12 1.12 0 0 1 3.5 10M7 15c0-.265.086-.52.24-.707A.75.75 0 0 1 7.818 14h4.364c.217 0 .425.105.578.293.154.187.24.442.24.707s-.086.52-.24.707a.75.75 0 0 1-.578.293H7.818a.75.75 0 0 1-.578-.293A1.12 1.12 0 0 1 7 15"/>
</svg>