<svg xmlns="http://www.w3.org/2000/svg" fill="none" viewBox="0 0 20 20">
  <path fill="#fff" fill-rule="evenodd" d="M12.45 1.142c.269-.085.552-.128.835-.128L13.271 1c.284 0 .567.042.836.127.61.199 1.02.61 1.615 1.203l.95.948c.608.595 1.005 1.004 1.203 1.615.17.553.17 1.132 0 1.672-.198.609-.609 1.018-1.204 1.615l-7.735 7.735c-.17.184-.297.312-.482.44a2.2 2.2 0 0 1-.51.283q-.295.117-.607.18l-.015.002-4.561 1.148c-.114.042-.227.042-.34.042-.369 0-.737-.141-1.006-.41a1.39 1.39 0 0 1-.369-1.346l1.148-4.562.003-.014c.055-.234.098-.414.181-.61.071-.184.17-.354.283-.51.128-.17.27-.311.44-.481l7.733-7.734c.61-.61 1.006-1.003 1.616-1.201m.885 1.93a1.2 1.2 0 0 0-.364-.053v.013c-.13 0-.246.013-.363.052-.26.078-.494.312-.961.78l-.834.833 3.506 3.507.843-.842.122-.126c.374-.383.574-.588.658-.835a1.16 1.16 0 0 0 0-.727c-.078-.26-.312-.494-.78-.96l-.87-.869-.124-.122c-.385-.374-.589-.574-.836-.656zm-.364 6.415L9.465 5.98l-4.891 4.974a4 4 0 0 1-.128.136q-.167.16-.262.371c-.025.048-.039.107-.058.186q-.018.075-.046.176l-1.052 4.182 4.182-1.052c.182-.039.273-.065.364-.102.078-.04.156-.078.22-.13a2 2 0 0 0 .286-.26L12.971 9.5z" clip-rule="evenodd"/>
</svg>