<svg xmlns="http://www.w3.org/2000/svg" fill="none" viewBox="0 0 20 20">
  <path fill="#fff" d="M10 2c1.035 0 2.03.481 2.775 1.343.745.861 1.184 2.036 1.222 3.277L14 6.8h.667c.336 0 .66.152.907.427.246.274.397.65.423 1.053L16 8.4v8c0 .404-.127.793-.356 1.088a1.26 1.26 0 0 1-.877.508l-.1.004H5.333c-.336 0-.66-.152-.907-.427a1.74 1.74 0 0 1-.423-1.053L4 16.4v-8c0-.404.127-.792.356-1.088s.542-.478.877-.508l.1-.004H6c0-1.273.421-2.494 1.172-3.394S8.939 2 10 2m4.667 6.4H5.333v8h9.334zM10 10c.284 0 .561.11.79.312.23.202.398.487.483.813s.08.676-.013.998a1.6 1.6 0 0 1-.504.795l-.09.068V14c0 .204-.065.4-.181.548a.63.63 0 0 1-.446.25.6.6 0 0 1-.467-.185.86.86 0 0 1-.234-.52L9.333 14v-1.014a1.55 1.55 0 0 1-.565-.774 1.9 1.9 0 0 1-.056-1.026c.076-.34.244-.64.476-.855.233-.215.518-.331.812-.331m0-6.4c-.707 0-1.386.337-1.886.937s-.78 1.414-.78 2.263h5.333c0-.849-.281-1.663-.781-2.263S10.707 3.6 10 3.6"/>
</svg>