<svg xmlns="http://www.w3.org/2000/svg" fill="none" viewBox="0 0 20 20">
  <path stroke="#fff" stroke-linecap="round" stroke-linejoin="round" stroke-width="1.501" d="M2.92 15.025a1.5 1.5 0 0 0-.44 1.062v1.63a.75.75 0 0 0 .751.75h2.252a.75.75 0 0 0 .75-.75v-.75a.75.75 0 0 1 .75-.751h.751a.75.75 0 0 0 .75-.75v-.751a.75.75 0 0 1 .751-.75h.13a1.5 1.5 0 0 0 1.06-.44l.611-.611a4.878 4.878 0 1 0-3.002-3.002z"/>
  <path fill="#fff" stroke="#fff" stroke-linecap="round" stroke-linejoin="round" stroke-width="1.501" d="M12.375 8.75a.375.375 0 1 0 0-.75.375.375 0 0 0 0 .75"/>
</svg>