<svg xmlns="http://www.w3.org/2000/svg" fill="none" viewBox="0 0 20 20">
  <path fill="#fff" d="M18.182 3c.452 0 .818.448.818 1s-.366 1-.818 1H1.818C1.366 5 1 4.552 1 4s.366-1 .818-1z"/>
  <path fill="#fff" d="M17.111 3c.491 0 .889.388.889.867v11.266a.88.88 0 0 1-.889.867H2.89a.88.88 0 0 1-.89-.867V3.867C2 3.388 2.398 3 2.889 3zM3.778 14.267h12.444V4.733H3.778z"/>
  <path fill="#fff" fill-rule="evenodd" d="M10.566 14.81a.85.85 0 0 0-1.07-.05l-.062.05-3.2 2.937a.692.692 0 0 0 0 1.038.85.85 0 0 0 1.132 0L10 16.367l2.634 2.418a.85.85 0 0 0 1.132 0 .692.692 0 0 0 0-1.038z" clip-rule="evenodd"/>
  <path fill="#fff" d="M9.766 7.215a.85.85 0 0 0-1.132 0 .692.692 0 0 0 0 1.038L10.07 9.57l-1.435 1.316a.692.692 0 0 0 0 1.039.85.85 0 0 0 1.132 0l2-1.836a.692.692 0 0 0 0-1.038z"/>
</svg>