<svg xmlns="http://www.w3.org/2000/svg" fill="none" viewBox="0 0 20 20"><path fill="#fff" d="M18.182 3c.452 0 .818.448.818 1s-.366 1-.818 1H1.818C1.366 5 1 4.552 1 4s.366-1 .818-1h16.364Z"/><path fill="#fff" d="M17.111 3c.491 0 .889.388.889.867v11.266a.878.878 0 0 1-.889.867H2.89A.878.878 0 0 1 2 15.133V3.867C2 3.388 2.398 3 2.889 3H17.11ZM3.778 14.267h12.444V4.733H3.778v9.534Z"/><path fill="#fff" d="M9.495 14.76a.853.853 0 0 1 1.07.05l3.2 2.937a.692.692 0 0 1 0 1.038.851.851 0 0 1-1.13 0L10 16.367l-2.634 2.418a.851.851 0 0 1-1.132 0 .692.692 0 0 1 0-1.038l3.2-2.937.061-.05Zm-.86-7.545a.851.851 0 0 1 1.13 0l2 1.836a.692.692 0 0 1 0 1.038l-2 1.836a.851.851 0 0 1-1.13 0 .692.692 0 0 1 0-1.039l1.434-1.316-1.435-1.317a.692.692 0 0 1 0-1.038Z"/></svg>