<svg xmlns="http://www.w3.org/2000/svg" fill="none" viewBox="0 0 20 20">
  <path fill="#fff" d="M8.048 13.595q-2.325 0-3.937-1.611-1.61-1.611-1.611-3.936T4.111 4.11 8.048 2.5t3.937 1.611 1.61 3.937a5.2 5.2 0 0 1-1.11 3.243l4.78 4.78a.8.8 0 0 1 .235.597.8.8 0 0 1-.235.597.8.8 0 0 1-.597.235.8.8 0 0 1-.598-.235l-4.78-4.78a5.2 5.2 0 0 1-3.243 1.11m0-1.707q1.6 0 2.72-1.12t1.12-2.72q0-1.601-1.12-2.72-1.118-1.12-2.72-1.121-1.602-.002-2.72 1.12-1.12 1.124-1.121 2.72-.002 1.599 1.12 2.722 1.124 1.122 2.72 1.12"/>
</svg>