<svg xmlns="http://www.w3.org/2000/svg" fill="none" viewBox="0 0 20 20"><path fill="#fff" d="M8.373 12.996c-1.292 0-2.385-.447-3.28-1.343-.895-.895-1.343-1.988-1.343-3.28 0-1.292.447-2.385 1.343-3.28.896-.895 1.989-1.343 3.28-1.343 1.291 0 2.385.448 3.281 1.343.896.895 1.344 1.988 1.342 3.28a4.336 4.336 0 0 1-.925 2.703l3.983 3.983c.13.13.196.296.196.498a.674.674 0 0 1-.196.497.674.674 0 0 1-.497.196.674.674 0 0 1-.498-.196l-3.983-3.982a4.336 4.336 0 0 1-2.703.925Zm0-1.422c.89 0 1.645-.311 2.268-.934.622-.622.933-1.377.933-2.267 0-.89-.312-1.645-.934-2.267-.621-.621-1.377-.933-2.267-.934-.89 0-1.646.31-2.267.934a3.1 3.1 0 0 0-.934 2.267 3.08 3.08 0 0 0 .934 2.268c.624.623 1.38.934 2.267.933Z"/></svg>