<svg xmlns="http://www.w3.org/2000/svg" fill="none" viewBox="0 0 20 20">
  <path fill="#fff" d="M3.6 3.6A1.6 1.6 0 0 1 5.2 2h6.4a.8.8 0 0 1 .566.234l4 4a.8.8 0 0 1 .234.566v9.6a1.6 1.6 0 0 1-1.6 1.6H5.2a1.6 1.6 0 0 1-1.6-1.6zM14.19 7 11.5 4.31V7zM9.5 4h-4v12h9V9h-4.167a.833.833 0 0 1-.833-.833zM7 10.333c0-.22.079-.433.22-.589a.7.7 0 0 1 .53-.244h4.5c.199 0 .39.088.53.244s.22.368.22.59a.88.88 0 0 1-.22.589.7.7 0 0 1-.53.244h-4.5a.7.7 0 0 1-.53-.244.88.88 0 0 1-.22-.59m0 3.334c0-.221.079-.433.22-.59a.7.7 0 0 1 .53-.244h4.5c.199 0 .39.088.53.244.141.157.22.369.22.59a.88.88 0 0 1-.22.589.7.7 0 0 1-.53.244h-4.5a.7.7 0 0 1-.53-.244.88.88 0 0 1-.22-.59"/>
</svg>