<svg xmlns="http://www.w3.org/2000/svg" fill="none" viewBox="0 0 20 20"><path fill="#fff" d="M8.667 4.4v1.4h2.666V4.4H8.667ZM6.664 14.842l.003.058c0 .186.07.364.195.495a.65.65 0 0 0 .471.205h5.334a.65.65 0 0 0 .471-.205.718.718 0 0 0 .195-.495l.003-.058.607-7.642H6.057l.607 7.642ZM8 13.5V9.3c0-.387.298-.7.667-.7.368 0 .666.313.666.7v4.2c0 .387-.298.7-.666.7-.369 0-.667-.313-.667-.7Zm2.667 0V9.3c0-.387.298-.7.666-.7.368 0 .667.313.667.7v4.2c0 .387-.299.7-.667.7-.368 0-.666-.313-.666-.7Zm2-7.7h2.666c.368 0 .667.313.667.7 0 .387-.299.7-.667.7h-.053l-.616 7.758a2.15 2.15 0 0 1-.583 1.427 1.953 1.953 0 0 1-1.414.615H7.333c-.53 0-1.039-.221-1.414-.615a2.15 2.15 0 0 1-.583-1.427L4.72 7.2h-.053C4.298 7.2 4 6.887 4 6.5c0-.387.298-.7.667-.7h2.666V4.4c0-.371.14-.727.391-.99.25-.262.589-.41.943-.41h2.666c.354 0 .693.148.943.41.25.263.39.619.39.99v1.4Z"/></svg>