<svg xmlns="http://www.w3.org/2000/svg" fill="none" viewBox="0 0 20 20">
  <path fill="#fff" fill-rule="evenodd" d="M11.333 3c.354 0 .693.148.943.41.25.263.391.62.391.99v1.4h2.666c.368 0 .667.313.667.7s-.299.7-.667.7h-.053l-.616 7.758a2.15 2.15 0 0 1-.583 1.427 1.95 1.95 0 0 1-1.414.615H7.333a1.95 1.95 0 0 1-1.414-.615 2.15 2.15 0 0 1-.583-1.427L4.72 7.2h-.053C4.299 7.2 4 6.887 4 6.5s.299-.7.667-.7h2.666V4.4c0-.37.14-.727.39-.99.25-.262.59-.41.944-.41zM8.667 8C8.299 8 8 8.336 8 8.75v4.5c0 .414.299.75.667.75s.666-.336.666-.75v-4.5c0-.414-.298-.75-.666-.75m2.666 0c-.368 0-.666.336-.666.75v4.5c0 .414.298.75.666.75s.667-.336.667-.75v-4.5c0-.414-.299-.75-.667-.75M8.667 5.8h2.666V4.4H8.667z" clip-rule="evenodd"/>
</svg>