<svg xmlns="http://www.w3.org/2000/svg" fill="none" viewBox="0 0 20 20">
  <path fill="#fff" d="M10.45 9.2a2.048 2.048 0 0 0-3.944-.784 2.05 2.05 0 1 0 3.944.784m1.5 0a3.55 3.55 0 1 1-7.101.002 3.55 3.55 0 0 1 7.1-.002"/>
  <path fill="#fff" d="M12.05 16c0-1.73-1.565-3.25-3.65-3.25S4.75 14.27 4.75 16a.75.75 0 0 1-1.5 0c0-2.69 2.375-4.75 5.15-4.75s5.15 2.061 5.15 4.75a.75.75 0 0 1-1.5 0m4.2-1.994c0-1.729-1.566-3.25-3.65-3.25h-.001q-.533 0-1.034-.152a.75.75 0 0 1 .442-1.434q.274.085.593.085a2.05 2.05 0 0 0 1.874-1.216A2.051 2.051 0 0 0 11 5.923c-.172.214-.192.26-.2.282-.012.029-.026.08-.055.37a.75.75 0 0 1-1.492-.15c.025-.248.05-.51.148-.763.102-.262.263-.47.43-.678a3.55 3.55 0 0 1 6.013 3.663 3.55 3.55 0 0 1-.836 1.163c1.611.787 2.74 2.342 2.741 4.196a.75.75 0 0 1-1.5 0"/>
</svg>