<svg width="972" height="200" viewBox="0 0 972 200" fill="none" xmlns="http://www.w3.org/2000/svg">
<g clip-path="url(#clip0_2002_2)">
<path d="M159.892 6.08475C108.942 93.1692 134.129 155.126 158.835 189.726C163.033 195.606 171.685 195.266 175.569 189.175C224.989 111.669 201.098 40.5838 176.453 5.08518C172.286 -0.917059 163.581 -0.222069 159.892 6.08475Z" fill="url(#paint0_linear_2002_2)" fill-opacity="0.75"/>
<path d="M282.146 46.068C187.35 80.6581 167.22 144.434 164.174 186.835C163.657 194.041 170.54 199.297 177.418 197.081C264.925 168.894 291.876 98.9138 295.542 55.8595C296.162 48.5789 289.012 43.5626 282.146 46.068Z" fill="url(#paint1_linear_2002_2)" fill-opacity="0.75"/>
<path d="M51.2929 45.3672C146.089 79.9573 166.218 143.733 169.264 186.134C169.782 193.34 162.899 198.596 156.021 196.381C68.5136 168.193 41.5633 98.2129 37.8966 55.1587C37.2765 47.878 44.4266 42.8617 51.2929 45.3672Z" fill="url(#paint2_linear_2002_2)" fill-opacity="0.75"/>
<path d="M221.428 13.7637C145.549 80.2749 149.846 147.014 162.341 187.648C164.464 194.553 172.78 196.966 178.391 192.415C249.79 134.508 249.609 59.518 237.457 18.0507C235.402 11.039 226.924 8.94666 221.428 13.7637Z" fill="url(#paint3_linear_2002_2)" fill-opacity="0.75"/>
<path d="M14.9801 88.6741C115.893 91.8187 155.175 145.977 171.481 185.24C174.256 191.923 169.363 199.093 162.12 199.144C70.1487 199.786 22.4386 141.882 5.33264 102.193C2.43593 95.4717 7.65831 88.4459 14.9801 88.6741Z" fill="url(#paint4_linear_2002_2)" fill-opacity="0.75"/>
<path d="M317.395 88.6307C216.482 91.7753 177.201 145.934 160.895 185.197C158.119 191.88 163.013 199.05 170.255 199.1C262.227 199.742 309.937 141.839 327.043 102.149C329.94 95.4283 324.717 88.4025 317.395 88.6307Z" fill="url(#paint5_linear_2002_2)" fill-opacity="0.75"/>
<path d="M112.313 13.2257C188.192 79.7369 183.895 146.476 171.4 187.11C169.277 194.015 160.961 196.428 155.35 191.877C83.9511 133.97 84.1319 58.98 96.2837 17.5127C98.3385 10.501 106.817 8.4087 112.313 13.2257Z" fill="url(#paint6_linear_2002_2)" fill-opacity="0.75"/>
<path d="M924.383 60.7236C902.801 60.7236 885.503 78.1868 885.503 99.6039C885.503 121.021 902.801 138.484 924.383 138.484C934.268 138.484 943.658 134.86 950.907 127.94C953.049 125.963 955.685 124.975 958.486 124.975C968.371 124.975 973.313 137.331 966.064 144.086C954.696 154.794 939.869 160.56 924.383 160.56C890.775 160.56 863.427 133.212 863.427 99.6039C863.427 65.9955 890.775 38.6474 924.383 38.6474C940.199 38.6474 955.191 44.7431 966.558 55.7811C971.006 59.8998 971.171 66.984 966.888 71.2674C962.604 75.7156 955.685 75.8803 951.237 71.5969C943.988 64.6775 934.433 60.7236 924.383 60.7236Z" fill="url(#paint7_linear_2002_2)"/>
<path d="M786.06 37C820.492 37 848.499 65.1717 848.499 99.6039C848.499 134.201 820.492 162.208 785.895 162.208C751.463 162.208 723.456 134.201 723.456 99.6039C723.456 65.007 751.463 37 785.895 37C786.06 37 786.06 37 786.06 37ZM785.895 140.132C808.301 140.132 826.423 122.01 826.423 99.6039C826.423 77.1983 808.301 59.0761 785.895 59.0761C763.654 59.0761 745.532 77.1983 745.532 99.6039C745.532 122.01 763.654 140.132 785.895 140.132Z" fill="url(#paint8_linear_2002_2)"/>
<path d="M709.241 39.8006C715.337 39.8006 720.279 44.743 720.279 51.0034C720.279 57.0991 715.337 62.0415 709.241 62.0415H679.916V147.051C679.916 153.147 674.974 158.089 668.878 158.089C662.782 158.089 657.84 153.147 657.84 147.051V62.0415H628.68C622.584 62.0415 617.642 57.0991 617.642 51.0034C617.642 44.743 622.584 39.8006 628.68 39.8006H709.241Z" fill="url(#paint9_linear_2002_2)"/>
<path d="M551.971 37C586.403 37 614.41 65.1717 614.41 99.6039C614.41 134.201 586.403 162.208 551.806 162.208C517.374 162.208 489.367 134.201 489.367 99.6039C489.367 65.007 517.374 37 551.806 37C551.971 37 551.971 37 551.971 37ZM551.806 140.132C574.212 140.132 592.334 122.01 592.334 99.6039C592.334 77.1983 574.212 59.0761 551.806 59.0761C529.565 59.0761 511.443 77.1983 511.443 99.6039C511.443 122.01 529.565 140.132 551.806 140.132Z" fill="url(#paint10_linear_2002_2)"/>
<path d="M388.445 152.488L385.15 155.947C383.008 157.924 380.207 158.748 376.583 158.419C373.123 158.089 370.487 156.771 368.51 154.465C366.533 152.158 365.71 149.358 366.039 145.898C366.204 142.438 367.522 139.802 369.993 137.825L373.123 135.189C374.606 133.871 376.089 132.224 377.242 130.576C378.56 128.764 379.549 127.117 380.537 125.304C381.361 123.492 382.184 121.351 383.008 118.55C383.667 115.749 384.161 113.443 384.656 111.301C385.15 109.324 385.644 106.359 385.974 102.734C386.303 99.1097 386.633 96.1442 386.797 93.8378C386.962 91.5313 387.127 88.0716 387.127 83.6234C387.292 79.1753 387.456 75.7156 387.456 73.0796C387.456 70.4437 387.456 66.6545 387.456 61.5473C387.456 56.9344 387.456 53.6394 387.456 51.1682H387.621C387.621 48.038 388.939 45.2373 391.41 43.0956C393.387 41.2834 395.694 40.2949 398.494 40.2949H457.968C460.934 40.2949 463.57 41.4481 465.711 43.5899C467.853 45.7316 469.006 48.3675 469.006 51.333L469.171 146.557C469.336 149.522 468.183 152.158 466.041 154.3C463.899 156.442 461.263 157.43 458.298 157.43C455.167 157.43 452.696 156.442 450.555 154.3C448.413 152.158 447.26 149.687 447.26 146.557L446.93 62.2063H409.203C409.038 69.7847 409.038 75.8803 408.874 80.9875C408.709 85.9299 408.379 91.5313 407.885 97.9564C407.391 104.382 406.567 109.818 405.743 114.596C404.755 119.209 403.602 123.987 402.119 128.764C400.801 133.707 398.824 137.99 396.517 141.944C394.211 145.898 391.575 149.358 388.445 152.488Z" fill="url(#paint11_linear_2002_2)"/>
</g>
<defs>
<linearGradient id="paint0_linear_2002_2" x1="167.365" y1="200.94" x2="167.365" y2="-6.26927" gradientUnits="userSpaceOnUse">
<stop offset="0.163462" stop-color="#FFD3D3"/>
<stop offset="0.394231" stop-color="#FFBABC"/>
<stop offset="0.706731" stop-color="#FF9FA2"/>
<stop offset="0.899038" stop-color="#FF5C61"/>
</linearGradient>
<linearGradient id="paint1_linear_2002_2" x1="163.592" y1="200.912" x2="295.734" y2="41.2758" gradientUnits="userSpaceOnUse">
<stop offset="0.163462" stop-color="#FFD3D3"/>
<stop offset="0.394231" stop-color="#FFBABC"/>
<stop offset="0.706731" stop-color="#FF9FA2"/>
<stop offset="0.899038" stop-color="#FF5C61"/>
</linearGradient>
<linearGradient id="paint2_linear_2002_2" x1="169.847" y1="200.211" x2="37.7049" y2="40.5749" gradientUnits="userSpaceOnUse">
<stop offset="0.163462" stop-color="#FFD3D3"/>
<stop offset="0.394231" stop-color="#FFBABC"/>
<stop offset="0.706731" stop-color="#FF9FA2"/>
<stop offset="0.899038" stop-color="#FF5C61"/>
</linearGradient>
<linearGradient id="paint3_linear_2002_2" x1="166.887" y1="200.983" x2="232.388" y2="4.39305" gradientUnits="userSpaceOnUse">
<stop offset="0.163462" stop-color="#FFD3D3"/>
<stop offset="0.394231" stop-color="#FFBABC"/>
<stop offset="0.706731" stop-color="#FF9FA2"/>
<stop offset="0.899038" stop-color="#FF5C61"/>
</linearGradient>
<linearGradient id="paint4_linear_2002_2" x1="176.477" y1="198.435" x2="0.62369" y2="88.2734" gradientUnits="userSpaceOnUse">
<stop offset="0.163462" stop-color="#FFD3D3"/>
<stop offset="0.394231" stop-color="#FFBABC"/>
<stop offset="0.706731" stop-color="#FF9FA2"/>
<stop offset="0.899038" stop-color="#FF5C61"/>
</linearGradient>
<linearGradient id="paint5_linear_2002_2" x1="155.898" y1="198.391" x2="331.752" y2="88.23" gradientUnits="userSpaceOnUse">
<stop offset="0.163462" stop-color="#FFD3D3"/>
<stop offset="0.394231" stop-color="#FFBABC"/>
<stop offset="0.706731" stop-color="#FF9FA2"/>
<stop offset="0.899038" stop-color="#FF5C61"/>
</linearGradient>
<linearGradient id="paint6_linear_2002_2" x1="166.854" y1="200.445" x2="101.353" y2="3.85509" gradientUnits="userSpaceOnUse">
<stop offset="0.163462" stop-color="#FFD3D3"/>
<stop offset="0.394231" stop-color="#FFBABC"/>
<stop offset="0.706731" stop-color="#FF9FA2"/>
<stop offset="0.899038" stop-color="#FF5C61"/>
</linearGradient>
<linearGradient id="paint7_linear_2002_2" x1="1016.6" y1="16.9116" x2="1018.7" y2="188.944" gradientUnits="userSpaceOnUse">
<stop stop-color="#FF8084"/>
<stop offset="1" stop-color="#FFC4C4"/>
</linearGradient>
<linearGradient id="paint8_linear_2002_2" x1="903.17" y1="14.6767" x2="905.06" y2="191.365" gradientUnits="userSpaceOnUse">
<stop stop-color="#FF8084"/>
<stop offset="1" stop-color="#FFC4C4"/>
</linearGradient>
<linearGradient id="paint9_linear_2002_2" x1="765.154" y1="18.711" x2="767.21" y2="185.628" gradientUnits="userSpaceOnUse">
<stop stop-color="#FF8084"/>
<stop offset="1" stop-color="#FFC4C4"/>
</linearGradient>
<linearGradient id="paint10_linear_2002_2" x1="669.081" y1="14.6767" x2="670.971" y2="191.365" gradientUnits="userSpaceOnUse">
<stop stop-color="#FF8084"/>
<stop offset="1" stop-color="#FFC4C4"/>
</linearGradient>
<linearGradient id="paint11_linear_2002_2" x1="514.315" y1="19.2221" x2="516.356" y2="186.007" gradientUnits="userSpaceOnUse">
<stop stop-color="#FF8084"/>
<stop offset="1" stop-color="#FFC4C4"/>
</linearGradient>
<clipPath id="clip0_2002_2">
<rect width="972" height="200" fill="white"/>
</clipPath>
</defs>
</svg>
