<svg width="105" height="22" viewBox="0 0 105 22" fill="none" xmlns="http://www.w3.org/2000/svg">
<g clip-path="url(#clip0_2131_1286)">
<path d="M96.1749 4.08595C92.4579 4.08595 89.4786 7.09362 89.4786 10.7823C89.4786 14.4709 92.4579 17.4786 96.1749 17.4786C97.8773 17.4786 99.4947 16.8543 100.743 15.6626C101.112 15.3221 101.566 15.1519 102.048 15.1519C103.751 15.1519 104.602 17.2799 103.354 18.4433C101.396 20.2876 98.8421 21.2807 96.1749 21.2807C90.3866 21.2807 85.6765 16.5706 85.6765 10.7823C85.6765 4.99393 90.3866 0.283813 96.1749 0.283813C98.8988 0.283813 101.481 1.33366 103.439 3.23473C104.205 3.94408 104.233 5.16417 103.495 5.9019C102.758 6.668 101.566 6.69638 100.8 5.95865C99.5514 4.76693 97.9057 4.08595 96.1749 4.08595Z" fill="#7A93CA"/>
<path d="M72.3517 0C78.2819 0 83.1055 4.85199 83.1055 10.7822C83.1055 16.7408 78.2819 21.5644 72.3233 21.5644C66.3931 21.5644 61.5695 16.7408 61.5695 10.7822C61.5695 4.82361 66.3931 0 72.3233 0C72.3517 0 72.3517 0 72.3517 0ZM72.3233 17.7622C76.1822 17.7622 79.3034 14.6411 79.3034 10.7822C79.3034 6.9233 76.1822 3.80214 72.3233 3.80214C68.4928 3.80214 65.3717 6.9233 65.3717 10.7822C65.3717 14.6411 68.4928 17.7622 72.3233 17.7622Z" fill="#7A93CA"/>
<path d="M59.1213 0.482178C60.1712 0.482178 61.0224 1.3334 61.0224 2.41162C61.0224 3.46147 60.1712 4.31269 59.1213 4.31269H54.0707V18.9538C54.0707 20.0036 53.2195 20.8548 52.1696 20.8548C51.1198 20.8548 50.2686 20.0036 50.2686 18.9538V4.31269H45.2463C44.1965 4.31269 43.3453 3.46147 43.3453 2.41162C43.3453 1.3334 44.1965 0.482178 45.2463 0.482178H59.1213Z" fill="#7A93CA"/>
<path d="M32.0348 0C37.965 0 42.7887 4.85199 42.7887 10.7822C42.7887 16.7408 37.965 21.5644 32.0065 21.5644C26.0763 21.5644 21.2527 16.7408 21.2527 10.7822C21.2527 4.82361 26.0763 0 32.0065 0C32.0348 0 32.0348 0 32.0348 0ZM32.0065 17.7622C35.8654 17.7622 38.9865 14.6411 38.9865 10.7822C38.9865 6.9233 35.8654 3.80214 32.0065 3.80214C28.176 3.80214 25.0548 6.9233 25.0548 10.7822C25.0548 14.6411 28.176 17.7622 32.0065 17.7622Z" fill="#7A93CA"/>
<path d="M3.87102 19.8902L3.30353 20.4861C2.93467 20.8265 2.45231 20.9684 1.82808 20.9117C1.23222 20.8549 0.778233 20.6279 0.437742 20.2307C0.0972523 19.8335 -0.0446185 19.3511 0.0121299 18.7552C0.040504 18.1594 0.267497 17.7054 0.69311 17.3649L1.23222 16.9109C1.48759 16.6839 1.74295 16.4002 1.94157 16.1164C2.16857 15.8043 2.33881 15.5206 2.50906 15.2085C2.65093 14.8963 2.7928 14.5275 2.93467 14.0451C3.04817 13.5628 3.13329 13.1655 3.21841 12.7967C3.30353 12.4562 3.38866 11.9454 3.44541 11.3212C3.50215 10.697 3.5589 10.1862 3.58728 9.78899C3.61565 9.39175 3.64402 8.7959 3.64402 8.02979C3.6724 7.26369 3.70077 6.66783 3.70077 6.21385C3.70077 5.75986 3.70077 5.10725 3.70077 4.22765C3.70077 3.43317 3.70077 2.86569 3.70077 2.44008H3.72915C3.72915 1.90097 3.95614 1.41861 4.38175 1.04974C4.72224 0.737628 5.11948 0.567383 5.60184 0.567383H15.8449C16.3557 0.567383 16.8096 0.766001 17.1785 1.13487C17.5474 1.50373 17.746 1.95772 17.746 2.46845L17.7744 18.8687C17.8027 19.3795 17.6041 19.8335 17.2353 20.2023C16.8664 20.5712 16.4124 20.7414 15.9017 20.7414C15.3626 20.7414 14.937 20.5712 14.5681 20.2023C14.1992 19.8335 14.0006 19.4078 14.0006 18.8687L13.9439 4.34115H7.44617C7.41779 5.64636 7.41779 6.6962 7.38942 7.5758C7.36104 8.42703 7.30429 9.39175 7.21917 10.4983C7.13405 11.6049 6.99218 12.5413 6.85031 13.3641C6.68006 14.1586 6.48144 14.9815 6.22608 15.8043C5.99908 16.6555 5.65859 17.3933 5.26135 18.0743C4.86411 18.7552 4.41013 19.3511 3.87102 19.8902Z" fill="#7A93CA"/>
</g>
<defs>
<clipPath id="clip0_2131_1286">
<rect width="105" height="22" fill="white"/>
</clipPath>
</defs>
</svg>
